<svg xmlns="http://www.w3.org/2000/svg" width="77.817" height="80" viewBox="0 0 77.817 80">
  <path id="Caminho_68" data-name="Caminho 68" d="M70.908,45.92a31.171,31.171,0,0,0,.28-3.92,31.173,31.173,0,0,0-.28-3.92l8.44-6.6a2.018,2.018,0,0,0,.48-2.56l-8-13.84a2.011,2.011,0,0,0-2.44-.88l-9.96,4a29.224,29.224,0,0,0-6.76-3.92l-1.52-10.6A1.95,1.95,0,0,0,49.188,2h-16a1.95,1.95,0,0,0-1.96,1.68l-1.52,10.6a30.731,30.731,0,0,0-6.76,3.92l-9.96-4a1.951,1.951,0,0,0-2.44.88l-8,13.84a1.972,1.972,0,0,0,.48,2.56l8.44,6.6a31.722,31.722,0,0,0-.28,3.92,31.722,31.722,0,0,0,.28,3.92l-8.44,6.6a2.018,2.018,0,0,0-.48,2.56l8,13.84a2.011,2.011,0,0,0,2.44.88l9.96-4a29.224,29.224,0,0,0,6.76,3.92l1.52,10.6A1.95,1.95,0,0,0,33.188,82h16a1.95,1.95,0,0,0,1.96-1.68l1.52-10.6a30.732,30.732,0,0,0,6.76-3.92l9.96,4a1.951,1.951,0,0,0,2.44-.88l8-13.84a2.018,2.018,0,0,0-.48-2.56ZM41.188,56a14,14,0,1,1,14-14A14.015,14.015,0,0,1,41.188,56Z" transform="translate(-2.271 -2)" fill="#fff"/>
</svg>
