<svg xmlns="http://www.w3.org/2000/svg" width="125.714" height="80" viewBox="0 0 125.714 80">
  <path id="Caminho_61" data-name="Caminho 61" d="M86.714,39.286A17.143,17.143,0,1,0,69.571,22.143,17.071,17.071,0,0,0,86.714,39.286ZM41,39.286A17.143,17.143,0,1,0,23.857,22.143,17.071,17.071,0,0,0,41,39.286Zm0,11.429c-13.314,0-40,6.686-40,20V85H81V70.714C81,57.4,54.314,50.714,41,50.714Zm45.714,0c-1.657,0-3.543.114-5.543.286C87.8,55.8,92.429,62.257,92.429,70.714V85h34.286V70.714C126.714,57.4,100.029,50.714,86.714,50.714Z" transform="translate(-1 -5)" fill="#fff"/>
</svg>
